<svg width="324" height="290" viewBox="0 0 324 290" fill="none" xmlns="http://www.w3.org/2000/svg">
<g filter="url(#filter0_d)">
<path d="M89.0487 64.3029C46.6798 54.6937 25.9689 77.0172 18.2389 96.8922C-22.7828 202.366 97.8854 249.623 192.423 229.218C235.093 220.007 291.883 168.024 304.767 119.382C308.374 81.2014 301.675 67.2793 281.576 64.3029C261.478 61.3263 248.595 77.0172 210.975 86.9547C191.815 92.0155 142.01 76.3143 89.0487 64.3029Z" fill="white"/>
</g>
<mask id="mask0" mask-type="alpha" maskUnits="userSpaceOnUse" x="10" y="-28" width="314" height="318">
<path d="M166.663 290C253.185 290 323.325 218.813 323.325 131C323.325 43.1867 253.185 -28 166.663 -28C80.1403 -28 10 43.1867 10 131C10 218.813 80.1403 290 166.663 290Z" fill="#C4C4C4"/>
</mask>
<g mask="url(#mask0)">
<path d="M68.3216 276.772C69.0867 263.439 79.6135 255.638 84.8793 244.232C92.3092 228.145 78.9358 214.572 96.2731 198.988C113.611 183.403 104.694 176.365 115.095 163.705C125.495 151.044 146.619 154.85 146.619 154.85H189.901C189.901 154.85 211.033 151.041 221.425 163.705C231.819 176.367 222.913 183.403 240.248 198.988C257.583 214.572 244.212 228.145 251.639 244.23C254.765 250.997 259.837 256.171 263.652 262.45C281.254 291.405 254.391 327.428 223.845 327.428C223.845 327.428 112.738 327.406 112.678 327.428C92.0784 334.593 77.2161 331.969 80.1041 313.352C82.1516 300.205 67.5711 289.879 68.3216 276.772Z" fill="#05C46B"/>
<path d="M168.578 132.778L189.371 129.412V176.711C189.371 195.498 170.047 199.947 168.578 200.26H168.529V200.241C167.059 199.927 147.785 195.487 147.785 176.701V129.412L168.578 132.778Z" fill="#F9D3B7"/>
<path d="M168.58 103.385L147.791 100.023V147.322C147.728 151.029 148.596 154.692 150.314 157.964C152.032 161.237 154.543 164.012 157.61 166.027C162.533 169.355 168.386 170.974 174.292 170.641C179.636 170.422 186.74 167.854 188.928 162.904C190.454 159.453 189.378 154.049 189.378 147.322V100.023L168.58 103.385Z" fill="#F7B7A1"/>
<path d="M207.23 93.2451C207.23 93.2451 207.527 89.4657 214.796 87.9845C222.066 86.5022 224.738 111.869 211.446 114.575C198.156 117.282 199.662 98.5025 207.23 93.2451Z" fill="#F4C19F"/>
<path d="M139.533 107.029C139.533 107.029 137.833 103.66 130.546 105.141C123.26 106.623 130.456 131.069 143.745 128.362C157.033 125.656 148.52 108.918 139.533 107.029Z" fill="#F4C19F"/>
<path d="M183.76 155.53C193.422 153.533 201.912 147.737 207.375 139.407C212.84 131.078 214.833 120.891 212.921 111.075L207.389 83.0879C205.418 73.2843 199.704 64.6697 191.495 59.1271C183.286 53.5845 173.251 51.5639 163.579 53.5069C153.922 55.5074 145.438 61.3039 139.977 69.6314C134.516 77.958 132.524 88.1393 134.432 97.9533L139.965 125.934C141.934 135.738 147.645 144.353 155.85 149.898C164.055 155.443 174.089 157.468 183.76 155.53Z" fill="#F9D3B7"/>
<path d="M144.997 122.823C142.735 111.39 157.353 112.184 174.498 108.691C191.643 105.197 204.824 98.7441 207.086 110.17C209.347 121.595 193.185 113.002 176.04 116.493C158.894 119.983 147.258 134.257 144.997 122.823Z" fill="#F7B7A1"/>
<path d="M121.05 96.2587C130.679 82.9153 124.611 83.9529 126.151 70.666C127.691 57.3794 141.633 46.0718 141.633 46.0718C141.633 46.0718 127.931 34.8309 137.746 26.4766C140.33 24.0725 143.398 22.2676 146.739 21.1873C150.078 20.1069 153.609 19.7769 157.088 20.2202C157.088 20.2202 166.074 3.49937 182.958 13.6876C197.455 22.4339 189.663 33.7808 183.93 39.0783C189.115 41.0505 199.814 46.0324 204.625 54.6874C211.101 66.34 205.49 68.6618 219.441 77.2038C233.394 85.7459 205.306 99.3404 212.84 109.743C220.374 120.146 215.269 125.961 215.269 125.961C215.717 123.525 215.365 121.006 214.268 118.791C213.172 116.576 211.391 114.787 209.197 113.697C201.424 110 198.624 103.768 205.252 91.1195C211.88 78.4706 165.356 90.2073 152.776 64.1807C151.064 93.1185 128.507 94.47 139.432 103.543C150.357 112.618 150.141 119.449 144.377 125.917C142.766 127.78 141.802 130.129 141.632 132.603C141.461 135.076 142.093 137.537 143.432 139.61C143.432 139.61 136.508 136.256 139.502 123.699C142.497 111.141 111.425 109.605 121.05 96.2587Z" fill="#081E29"/>
<path d="M193.177 94.903C190.837 95.4762 188.409 95.5714 186.033 95.1854C183.656 94.7994 181.379 93.9385 179.333 92.653" stroke="#081E29" stroke-width="1.132" stroke-linecap="round" stroke-linejoin="round"/>
<path d="M152.427 103.203C154.806 102.815 157.085 101.952 159.133 100.665C161.179 99.3769 162.955 97.6886 164.356 95.7001" stroke="#081E29" stroke-width="1.132" stroke-linecap="round" stroke-linejoin="round"/>
<path d="M163.117 108.726C163.227 109.283 163.172 109.862 162.958 110.388C162.744 110.914 162.381 111.363 161.916 111.68C161.45 111.997 160.902 112.166 160.341 112.167C159.782 112.168 159.233 112 158.767 111.685C158.3 111.369 157.936 110.92 157.72 110.395C157.505 109.87 157.448 109.291 157.557 108.734C157.665 108.175 157.934 107.663 158.33 107.26C158.725 106.856 159.23 106.582 159.78 106.469C160.145 106.395 160.521 106.395 160.886 106.468C161.252 106.54 161.599 106.687 161.909 106.896C162.218 107.105 162.485 107.375 162.692 107.689C162.9 108.003 163.044 108.355 163.117 108.726Z" fill="#081E29"/>
<path d="M190.974 103.056C191.084 103.614 191.03 104.192 190.816 104.718C190.603 105.244 190.24 105.694 189.774 106.011C189.31 106.329 188.761 106.499 188.201 106.5C187.641 106.501 187.092 106.333 186.626 106.018C186.159 105.703 185.794 105.255 185.579 104.73C185.363 104.204 185.305 103.626 185.414 103.068C185.522 102.509 185.791 101.996 186.187 101.593C186.582 101.19 187.088 100.915 187.637 100.803C188.374 100.653 189.139 100.806 189.764 101.229C190.39 101.651 190.826 102.308 190.974 103.056Z" fill="#081E29"/>
<path d="M175.237 130.103C175.12 129.138 175.077 128.165 175.108 127.194C175.037 126.445 175.243 125.696 175.685 125.091C176.127 124.486 176.775 124.07 177.502 123.922C178.229 123.774 178.984 123.905 179.622 124.289C180.259 124.674 180.734 125.285 180.954 126.003C181.352 126.887 181.682 127.801 181.94 128.737C182.315 130.017 182.39 131.367 182.157 132.681C182.098 133.332 181.834 133.946 181.404 134.432C180.974 134.919 180.4 135.25 179.769 135.379C179.138 135.508 178.482 135.426 177.901 135.146C177.319 134.865 176.843 134.403 176.541 133.826C175.824 132.705 175.378 131.43 175.237 130.103Z" fill="#081E29"/>
<path d="M172.954 100.881C172.954 100.881 183.024 116.313 176.276 117.686" stroke="#081E29" stroke-width="0.566" stroke-linecap="round" stroke-linejoin="round"/>
<path d="M198.731 217.802L190.78 170.738C190.78 170.738 184.755 166.456 185.221 155.123C185.688 143.791 182.404 138.489 179.088 134.589C176.643 132.218 181.104 127.686 188.641 144.671C186.29 130.29 179.361 128.071 180.213 126.316C181.065 124.561 187.674 126.893 191.786 139.648C190.13 126.925 182.265 122.545 183.441 120.666C185.175 117.917 195.697 127.847 195.93 140.84C198.002 127.859 189.205 122.409 190.698 119.34C192.192 116.271 203.143 129.656 201.235 148.211C204.495 142.352 200.23 134.104 202.984 133.085C205.738 132.067 210.72 150.876 201.254 168.443C206.787 185.451 218.052 211.237 218.052 211.237L198.731 217.802Z" fill="#F9C4A0"/>
<path d="M239.671 352.296C239.671 352.296 260.961 341.991 254.002 312.381C247.329 284.032 249.746 237.175 219.665 225.739C218.541 225.316 217.331 225.182 216.144 225.351C214.957 225.52 213.829 225.986 212.864 226.708C207.935 230.056 202.161 231.896 196.231 232.007C194.862 232.073 193.541 232.542 192.429 233.357C191.318 234.171 190.465 235.296 189.974 236.595C187.254 243.732 183.397 258.91 187.813 280.999C194.128 312.599 184.655 348.435 206.704 354.495C228.754 360.554 239.671 352.296 239.671 352.296Z" fill="#05C46B"/>
<path d="M149.423 144.42C149.423 144.42 163.171 160.689 183.757 155.53" stroke="#081E29" stroke-width="0.566" stroke-linecap="round" stroke-linejoin="round"/>
<path d="M225.918 34.3933C229.736 34.3933 232.83 31.2526 232.83 27.3785C232.83 23.5043 229.736 20.3636 225.918 20.3636C222.102 20.3636 219.006 23.5043 219.006 27.3785C219.006 31.2526 222.102 34.3933 225.918 34.3933Z" fill="#F19B1F"/>
<path d="M227.069 24.4557C227.387 24.4557 227.645 24.194 227.645 23.8711C227.645 23.5482 227.387 23.2865 227.069 23.2865C226.751 23.2865 226.493 23.5482 226.493 23.8711C226.493 24.194 226.751 24.4557 227.069 24.4557Z" fill="#F8E9AF"/>
<path d="M223.614 30.3014C223.932 30.3014 224.19 30.0397 224.19 29.7167C224.19 29.3939 223.932 29.1322 223.614 29.1322C223.295 29.1322 223.037 29.3939 223.037 29.7167C223.037 30.0397 223.295 30.3014 223.614 30.3014Z" fill="#F8E9AF"/>
<path d="M223.614 26.7939C224.251 26.7939 224.766 26.2705 224.766 25.6247C224.766 24.979 224.251 24.4556 223.614 24.4556C222.978 24.4556 222.462 24.979 222.462 25.6247C222.462 26.2705 222.978 26.7939 223.614 26.7939Z" fill="#F8E9AF"/>
<path d="M228.221 30.886C229.175 30.886 229.949 30.1008 229.949 29.1322C229.949 28.1637 229.175 27.3785 228.221 27.3785C227.266 27.3785 226.493 28.1637 226.493 29.1322C226.493 30.1008 227.266 30.886 228.221 30.886Z" fill="#F8E9AF"/>
<path d="M225.925 20.9482C225.608 20.9482 225.349 20.6865 225.349 20.3637V18.0253C225.349 17.7025 225.608 17.4408 225.925 17.4408C226.244 17.4408 226.502 17.7025 226.502 18.0253V20.3637C226.502 20.6865 226.244 20.9482 225.925 20.9482Z" fill="#E47E25"/>
<path d="M222.472 21.8876C222.265 21.8877 222.075 21.7763 221.972 21.5952L220.819 19.5709C220.715 19.39 220.714 19.166 220.817 18.9841C220.92 18.8022 221.111 18.6903 221.318 18.6907C221.524 18.6912 221.715 18.804 221.817 18.9864L222.969 21.0107C223.072 21.1915 223.072 21.4142 222.969 21.595C222.867 21.7759 222.677 21.8873 222.472 21.8876Z" fill="#E47E25"/>
<path d="M219.94 24.4555C219.839 24.4555 219.739 24.4285 219.652 24.3773L217.657 23.2081C217.478 23.1044 217.367 22.9109 217.366 22.7012C217.366 22.4915 217.476 22.2975 217.655 22.193C217.835 22.0885 218.055 22.0896 218.233 22.1956L220.228 23.3648C220.454 23.497 220.564 23.7667 220.496 24.0222C220.429 24.2779 220.201 24.4555 219.94 24.4555Z" fill="#E47E25"/>
<path d="M219.015 27.9631H216.711C216.393 27.9631 216.135 27.7014 216.135 27.3785C216.135 27.0557 216.393 26.7939 216.711 26.7939H219.015C219.333 26.7939 219.591 27.0557 219.591 27.3785C219.591 27.7014 219.333 27.9631 219.015 27.9631Z" fill="#E47E25"/>
<path d="M217.946 32.6396C217.685 32.6396 217.457 32.4619 217.389 32.2063C217.322 31.9508 217.433 31.6811 217.658 31.5488L219.653 30.3796C219.831 30.2735 220.052 30.2725 220.231 30.377C220.41 30.4815 220.521 30.6754 220.519 30.8852C220.519 31.095 220.408 31.2884 220.229 31.3921L218.234 32.5612C218.147 32.6125 218.047 32.6396 217.946 32.6396Z" fill="#E47E25"/>
<path d="M221.318 36.0628C221.112 36.0626 220.922 35.9511 220.819 35.7703C220.717 35.5895 220.717 35.3668 220.82 35.186L221.972 33.1616C222.074 32.9793 222.264 32.8664 222.472 32.866C222.678 32.8655 222.869 32.9775 222.972 33.1594C223.076 33.3413 223.075 33.5653 222.969 33.7462L221.817 35.7705C221.715 35.9516 221.524 36.063 221.318 36.0628Z" fill="#E47E25"/>
<path d="M225.925 37.3163C225.608 37.3163 225.349 37.0545 225.349 36.7316V34.3934C225.349 34.0706 225.608 33.8088 225.925 33.8088C226.244 33.8088 226.502 34.0706 226.502 34.3934V36.7316C226.502 37.0545 226.244 37.3163 225.925 37.3163Z" fill="#E47E25"/>
<path d="M230.535 36.0628C230.328 36.063 230.138 35.9516 230.035 35.7705L228.883 33.7462C228.778 33.5653 228.777 33.3413 228.88 33.1594C228.983 32.9775 229.175 32.8655 229.381 32.866C229.588 32.8664 229.779 32.9793 229.881 33.1616L231.032 35.186C231.135 35.3668 231.135 35.5895 231.032 35.7703C230.93 35.9511 230.74 36.0626 230.535 36.0628Z" fill="#E47E25"/>
<path d="M233.906 32.6396C233.805 32.6396 233.706 32.6125 233.618 32.5612L231.624 31.3921C231.444 31.2884 231.333 31.095 231.332 30.8852C231.332 30.6754 231.443 30.4815 231.622 30.377C231.801 30.2725 232.022 30.2735 232.2 30.3796L234.194 31.5488C234.42 31.6811 234.53 31.9508 234.462 32.2063C234.395 32.4619 234.167 32.6396 233.906 32.6396Z" fill="#E47E25"/>
<path d="M235.142 27.9631H232.837C232.52 27.9631 232.261 27.7014 232.261 27.3785C232.261 27.0557 232.52 26.7939 232.837 26.7939H235.142C235.459 26.7939 235.717 27.0557 235.717 27.3785C235.717 27.7014 235.459 27.9631 235.142 27.9631Z" fill="#E47E25"/>
<path d="M231.913 24.4555C231.652 24.4555 231.424 24.2779 231.356 24.0222C231.289 23.7667 231.398 23.497 231.624 23.3648L233.619 22.1956C233.798 22.0896 234.018 22.0885 234.198 22.193C234.377 22.2975 234.487 22.4915 234.486 22.7012C234.486 22.9109 234.375 23.1044 234.195 23.2081L232.2 24.3773C232.113 24.4285 232.014 24.4555 231.913 24.4555Z" fill="#E47E25"/>
<path d="M229.382 21.8876C229.177 21.8873 228.986 21.7759 228.884 21.595C228.781 21.4142 228.781 21.1915 228.884 21.0107L230.036 18.9864C230.139 18.804 230.329 18.6912 230.536 18.6907C230.743 18.6903 230.933 18.8022 231.036 18.9841C231.14 19.166 231.139 19.39 231.033 19.5709L229.882 21.5952C229.779 21.7763 229.588 21.8877 229.382 21.8876Z" fill="#E47E25"/>
<path d="M73.3785 99.2484C77.1957 99.2484 80.2902 96.1081 80.2902 92.2336C80.2902 88.36 77.1957 85.2188 73.3785 85.2188C69.5612 85.2188 66.4667 88.36 66.4667 92.2336C66.4667 96.1081 69.5612 99.2484 73.3785 99.2484Z" fill="#F19B1F"/>
<path d="M74.5291 89.3109C74.8473 89.3109 75.1052 89.0493 75.1052 88.7261C75.1052 88.4039 74.8473 88.1414 74.5291 88.1414C74.2111 88.1414 73.9532 88.4039 73.9532 88.7261C73.9532 89.0493 74.2111 89.3109 74.5291 89.3109Z" fill="#F8E9AF"/>
<path d="M71.0738 95.1562C71.3919 95.1562 71.6497 94.8947 71.6497 94.5725C71.6497 94.2493 71.3919 93.9878 71.0738 93.9878C70.7557 93.9878 70.4979 94.2493 70.4979 94.5725C70.4979 94.8947 70.7557 95.1562 71.0738 95.1562Z" fill="#F8E9AF"/>
<path d="M71.074 91.6488C71.7102 91.6488 72.226 91.1258 72.226 90.4804C72.226 89.8339 71.7102 89.3109 71.074 89.3109C70.4379 89.3109 69.9221 89.8339 69.9221 90.4804C69.9221 91.1258 70.4379 91.6488 71.074 91.6488Z" fill="#F8E9AF"/>
<path d="M75.6811 95.7409C76.6354 95.7409 77.4091 94.9564 77.4091 93.9878C77.4091 93.0191 76.6354 92.2335 75.6811 92.2335C74.7268 92.2335 73.9532 93.0191 73.9532 93.9878C73.9532 94.9564 74.7268 95.7409 75.6811 95.7409Z" fill="#F8E9AF"/>
<path d="M73.3858 85.8034C73.0676 85.8034 72.8098 85.5419 72.8098 85.2187V82.8808C72.8098 82.5575 73.0676 82.296 73.3858 82.296C73.7039 82.296 73.9618 82.5575 73.9618 82.8808V85.2187C73.9618 85.5419 73.7039 85.8034 73.3858 85.8034Z" fill="#E47E25"/>
<path d="M69.9314 86.7428C69.7254 86.7428 69.535 86.6319 69.432 86.4509L68.2801 84.4258C68.1755 84.2448 68.1745 84.0209 68.2775 83.8389C68.3804 83.6569 68.5715 83.545 68.7782 83.546C68.9848 83.546 69.1755 83.659 69.2776 83.841L70.4296 85.8662C70.5324 86.0471 70.5325 86.2689 70.4297 86.4499C70.327 86.6308 70.137 86.7428 69.9314 86.7428Z" fill="#E47E25"/>
<path d="M67.4 89.3109C67.2989 89.3109 67.1996 89.2837 67.112 89.2324L65.1174 88.0629C64.9377 87.9594 64.8266 87.7659 64.8261 87.5566C64.8256 87.3464 64.9359 87.1529 65.1152 87.0483C65.2944 86.9437 65.5151 86.9447 65.6934 87.0504L67.6879 88.2198C67.9138 88.3527 68.0238 88.6215 67.9563 88.8778C67.8888 89.133 67.6606 89.3109 67.4 89.3109Z" fill="#E47E25"/>
<path d="M66.475 92.8183H64.1711C63.853 92.8183 63.5951 92.5568 63.5951 92.2336C63.5951 91.9114 63.853 91.6488 64.1711 91.6488H66.475C66.7931 91.6488 67.051 91.9114 67.051 92.2336C67.051 92.5568 66.7931 92.8183 66.475 92.8183Z" fill="#E47E25"/>
<path d="M65.4061 97.4952C65.1455 97.4952 64.9173 97.3174 64.8498 97.0611C64.7824 96.8059 64.8924 96.536 65.1181 96.4042L67.1127 95.2347C67.291 95.129 67.5117 95.128 67.6909 95.2326C67.8702 95.3372 67.9804 95.5307 67.98 95.741C67.9796 95.9502 67.8684 96.1437 67.6888 96.2473L65.6941 97.4167C65.6066 97.468 65.5072 97.4952 65.4061 97.4952Z" fill="#E47E25"/>
<path d="M68.7784 100.918C68.5727 100.918 68.3827 100.806 68.28 100.626C68.1772 100.445 68.1773 100.222 68.2802 100.041L69.432 98.0172C69.5343 97.8342 69.7249 97.7222 69.9315 97.7212C70.1383 97.7212 70.3293 97.8331 70.4322 98.0151C70.5352 98.1961 70.5342 98.421 70.4296 98.602L69.2778 100.626C69.1748 100.807 68.9843 100.918 68.7784 100.918Z" fill="#E47E25"/>
<path d="M73.3858 102.171C73.0676 102.171 72.8098 101.909 72.8098 101.587V99.2483C72.8098 98.9261 73.0676 98.6636 73.3858 98.6636C73.7039 98.6636 73.9618 98.9261 73.9618 99.2483V101.587C73.9618 101.909 73.7039 102.171 73.3858 102.171Z" fill="#E47E25"/>
<path d="M77.9946 100.918C77.7886 100.918 77.5982 100.807 77.4952 100.626L76.3432 98.602C76.2387 98.421 76.2378 98.1961 76.3407 98.0151C76.4436 97.8331 76.6347 97.7212 76.8415 97.7212C77.0481 97.7222 77.2387 97.8342 77.3408 98.0172L78.4928 100.041C78.5957 100.222 78.5957 100.445 78.4929 100.626C78.3902 100.806 78.2003 100.918 77.9946 100.918Z" fill="#E47E25"/>
<path d="M81.3664 97.4952C81.2653 97.4952 81.166 97.468 81.0785 97.4167L79.0838 96.2473C78.9042 96.1437 78.7931 95.9502 78.7925 95.741C78.7921 95.5307 78.9024 95.3372 79.0816 95.2326C79.2609 95.128 79.4815 95.129 79.6598 95.2347L81.6544 96.4042C81.8802 96.536 81.9902 96.8059 81.9228 97.0611C81.8553 97.3174 81.6271 97.4952 81.3664 97.4952Z" fill="#E47E25"/>
<path d="M82.6015 92.8183H80.2975C79.9794 92.8183 79.7216 92.5568 79.7216 92.2336C79.7216 91.9114 79.9794 91.6488 80.2975 91.6488H82.6015C82.9195 91.6488 83.1774 91.9114 83.1774 92.2336C83.1774 92.5568 82.9195 92.8183 82.6015 92.8183Z" fill="#E47E25"/>
<path d="M79.3726 89.3109C79.1119 89.3109 78.8837 89.133 78.8162 88.8778C78.7488 88.6215 78.8588 88.3527 79.0846 88.2198L81.0792 87.0504C81.2575 86.9447 81.4782 86.9437 81.6574 87.0483C81.8366 87.1529 81.9469 87.3464 81.9465 87.5566C81.946 87.7659 81.8349 87.9594 81.6551 88.0629L79.6606 89.2324C79.573 89.2837 79.4737 89.3109 79.3726 89.3109Z" fill="#E47E25"/>
<path d="M76.8426 86.7428C76.6369 86.7428 76.4469 86.6308 76.3442 86.4499C76.2415 86.2689 76.2415 86.0471 76.3444 85.8662L77.4964 83.841C77.5985 83.659 77.7891 83.546 77.9957 83.546C78.2025 83.545 78.3936 83.6569 78.4965 83.8389C78.5994 84.0209 78.5984 84.2448 78.4939 84.4258L77.342 86.4509C77.239 86.6319 77.0485 86.7428 76.8426 86.7428Z" fill="#E47E25"/>
<path d="M271.263 126.261C276.687 126.261 281.085 121.798 281.085 116.293C281.085 110.787 276.687 106.325 271.263 106.325C265.838 106.325 261.441 110.787 261.441 116.293C261.441 121.798 265.838 126.261 271.263 126.261Z" fill="#F19B1F"/>
<path d="M272.899 112.139C273.352 112.139 273.718 111.768 273.718 111.308C273.718 110.85 273.352 110.478 272.899 110.478C272.448 110.478 272.081 110.85 272.081 111.308C272.081 111.768 272.448 112.139 272.899 112.139Z" fill="#F8E9AF"/>
<path d="M267.99 120.447C268.442 120.447 268.809 120.074 268.809 119.615C268.809 119.157 268.442 118.784 267.99 118.784C267.538 118.784 267.172 119.157 267.172 119.615C267.172 120.074 267.538 120.447 267.99 120.447Z" fill="#F8E9AF"/>
<path d="M267.988 115.462C268.892 115.462 269.625 114.718 269.625 113.801C269.625 112.883 268.892 112.139 267.988 112.139C267.084 112.139 266.352 112.883 266.352 113.801C266.352 114.718 267.084 115.462 267.988 115.462Z" fill="#F8E9AF"/>
<path d="M274.537 121.277C275.892 121.277 276.992 120.161 276.992 118.784C276.992 117.409 275.892 116.293 274.537 116.293C273.181 116.293 272.081 117.409 272.081 118.784C272.081 120.161 273.181 121.277 274.537 121.277Z" fill="#F8E9AF"/>
<path d="M271.276 107.155C270.825 107.155 270.458 106.783 270.458 106.325V103.002C270.458 102.543 270.825 102.171 271.276 102.171C271.729 102.171 272.094 102.543 272.094 103.002V106.325C272.094 106.783 271.729 107.155 271.276 107.155Z" fill="#E47E25"/>
<path d="M266.366 108.49C266.073 108.49 265.803 108.332 265.657 108.075L264.02 105.198C263.872 104.941 263.87 104.623 264.016 104.365C264.162 104.105 264.433 103.946 264.727 103.947C265.021 103.948 265.292 104.108 265.437 104.368L267.074 107.244C267.22 107.501 267.22 107.818 267.074 108.074C266.929 108.331 266.659 108.49 266.366 108.49Z" fill="#E47E25"/>
<path d="M262.769 112.139C262.626 112.139 262.484 112.101 262.36 112.028L259.525 110.367C259.27 110.219 259.112 109.944 259.111 109.646C259.111 109.348 259.268 109.073 259.522 108.924C259.777 108.776 260.09 108.777 260.344 108.927L263.178 110.59C263.499 110.777 263.655 111.161 263.559 111.524C263.464 111.887 263.139 112.139 262.769 112.139Z" fill="#E47E25"/>
<path d="M261.455 117.123H258.18C257.729 117.123 257.362 116.752 257.362 116.293C257.362 115.834 257.729 115.462 258.18 115.462H261.455C261.906 115.462 262.273 115.834 262.273 116.293C262.273 116.752 261.906 117.123 261.455 117.123Z" fill="#E47E25"/>
<path d="M259.936 123.769C259.566 123.769 259.241 123.517 259.145 123.154C259.049 122.79 259.206 122.407 259.526 122.219L262.361 120.557C262.614 120.407 262.928 120.406 263.182 120.554C263.438 120.702 263.594 120.978 263.593 121.276C263.592 121.574 263.435 121.849 263.179 121.996L260.345 123.658C260.221 123.73 260.08 123.769 259.936 123.769Z" fill="#E47E25"/>
<path d="M264.728 128.633C264.436 128.633 264.165 128.475 264.02 128.218C263.874 127.96 263.874 127.645 264.02 127.387L265.657 124.511C265.802 124.251 266.073 124.091 266.367 124.091C266.661 124.09 266.932 124.249 267.078 124.507C267.225 124.766 267.224 125.084 267.075 125.341L265.437 128.218C265.291 128.475 265.021 128.634 264.728 128.633Z" fill="#E47E25"/>
<path d="M271.276 130.415C270.825 130.415 270.458 130.043 270.458 129.584V126.261C270.458 125.802 270.825 125.43 271.276 125.43C271.729 125.43 272.094 125.802 272.094 126.261V129.584C272.094 130.043 271.729 130.415 271.276 130.415Z" fill="#E47E25"/>
<path d="M277.823 128.633C277.53 128.634 277.259 128.475 277.113 128.218L275.476 125.341C275.328 125.084 275.326 124.766 275.472 124.507C275.618 124.249 275.89 124.09 276.184 124.091C276.478 124.091 276.748 124.251 276.893 124.511L278.531 127.387C278.676 127.645 278.676 127.96 278.531 128.218C278.385 128.475 278.115 128.633 277.823 128.633Z" fill="#E47E25"/>
<path d="M282.616 123.769C282.471 123.769 282.33 123.73 282.206 123.658L279.372 121.996C279.116 121.849 278.959 121.574 278.958 121.276C278.958 120.978 279.114 120.702 279.369 120.554C279.624 120.406 279.937 120.407 280.19 120.557L283.025 122.219C283.345 122.407 283.502 122.79 283.406 123.154C283.31 123.517 282.986 123.769 282.616 123.769Z" fill="#E47E25"/>
<path d="M284.371 117.123H281.096C280.645 117.123 280.278 116.752 280.278 116.293C280.278 115.834 280.645 115.462 281.096 115.462H284.371C284.823 115.462 285.189 115.834 285.189 116.293C285.189 116.752 284.823 117.123 284.371 117.123Z" fill="#E47E25"/>
<path d="M279.783 112.139C279.413 112.139 279.089 111.887 278.993 111.524C278.897 111.161 279.054 110.777 279.374 110.59L282.208 108.927C282.462 108.777 282.775 108.776 283.03 108.924C283.284 109.073 283.441 109.348 283.441 109.646C283.44 109.944 283.282 110.219 283.027 110.367L280.192 112.028C280.068 112.101 279.928 112.139 279.783 112.139Z" fill="#E47E25"/>
<path d="M276.186 108.49C275.894 108.49 275.625 108.331 275.478 108.074C275.332 107.818 275.332 107.501 275.478 107.244L277.115 104.368C277.26 104.108 277.531 103.948 277.825 103.947C278.119 103.946 278.39 104.105 278.536 104.365C278.683 104.623 278.681 104.941 278.533 105.198L276.896 108.075C276.75 108.332 276.479 108.49 276.186 108.49Z" fill="#E47E25"/>
<path d="M41.4083 205.763C53.6638 205.763 63.5988 195.68 63.5988 183.241C63.5988 170.803 53.6638 160.72 41.4083 160.72C29.1528 160.72 19.2177 170.803 19.2177 183.241C19.2177 195.68 29.1528 205.763 41.4083 205.763Z" fill="#F19B1F"/>
<path d="M45.1046 173.857C46.1259 173.857 46.9538 173.017 46.9538 171.98C46.9538 170.944 46.1259 170.104 45.1046 170.104C44.0833 170.104 43.2554 170.944 43.2554 171.98C43.2554 173.017 44.0833 173.857 45.1046 173.857Z" fill="#F8E9AF"/>
<path d="M34.0118 192.625C35.0331 192.625 35.861 191.785 35.861 190.749C35.861 189.712 35.0331 188.872 34.0118 188.872C32.9905 188.872 32.1625 189.712 32.1625 190.749C32.1625 191.785 32.9905 192.625 34.0118 192.625Z" fill="#F8E9AF"/>
<path d="M34.009 181.365C36.0516 181.365 37.7075 179.684 37.7075 177.611C37.7075 175.538 36.0516 173.857 34.009 173.857C31.9664 173.857 30.3106 175.538 30.3106 177.611C30.3106 179.684 31.9664 181.365 34.009 181.365Z" fill="#F8E9AF"/>
<path d="M48.8031 194.502C51.867 194.502 54.3507 191.981 54.3507 188.872C54.3507 185.762 51.867 183.241 48.8031 183.241C45.7392 183.241 43.2554 185.762 43.2554 188.872C43.2554 191.981 45.7392 194.502 48.8031 194.502Z" fill="#F8E9AF"/>
<path d="M41.4369 162.596C40.4156 162.596 39.5876 161.756 39.5876 160.72V153.212C39.5876 152.176 40.4156 151.336 41.4369 151.336C42.4581 151.336 43.2861 152.176 43.2861 153.212V160.72C43.2861 161.756 42.4581 162.596 41.4369 162.596Z" fill="#E47E25"/>
<path d="M30.3444 165.612C29.6831 165.613 29.0718 165.255 28.7412 164.674L25.0427 158.175C24.7071 157.594 24.7039 156.874 25.0345 156.291C25.365 155.707 25.9785 155.347 26.6421 155.348C27.3057 155.35 27.9176 155.712 28.2455 156.298L31.944 162.797C32.2741 163.378 32.2744 164.092 31.9444 164.673C31.6146 165.253 31.0048 165.612 30.3444 165.612Z" fill="#E47E25"/>
<path d="M22.2163 173.857C21.8917 173.857 21.5728 173.77 21.2917 173.606L14.8879 169.852C14.311 169.519 13.9541 168.898 13.9526 168.225C13.9512 167.551 14.3054 166.928 14.8808 166.593C15.4562 166.257 16.1646 166.261 16.7371 166.602L23.1409 170.355C23.8657 170.78 24.219 171.646 24.0024 172.466C23.7858 173.287 23.0532 173.857 22.2163 173.857Z" fill="#E47E25"/>
<path d="M19.2461 185.118H11.8492C10.828 185.118 10 184.278 10 183.241C10 182.204 10.828 181.365 11.8492 181.365H19.2461C20.2674 181.365 21.0953 182.204 21.0953 183.241C21.0953 184.278 20.2674 185.118 19.2461 185.118Z" fill="#E47E25"/>
<path d="M15.815 200.133C14.9781 200.133 14.2455 199.562 14.0289 198.742C13.8123 197.921 14.1656 197.055 14.8904 196.631L21.2943 192.876C21.8667 192.536 22.5751 192.533 23.1505 192.868C23.7259 193.204 24.0802 193.826 24.0786 194.5C24.0772 195.173 23.7203 195.795 23.1435 196.127L16.7396 199.881C16.4585 200.046 16.1396 200.133 15.815 200.133Z" fill="#E47E25"/>
<path d="M26.6421 211.123C25.9819 211.123 25.372 210.765 25.0421 210.184C24.7123 209.604 24.7124 208.888 25.0426 208.308L28.741 201.809C29.069 201.223 29.681 200.861 30.3445 200.86C31.0081 200.858 31.6216 201.218 31.9521 201.801C32.2826 202.385 32.2795 203.105 31.9438 203.685L28.2454 210.184C27.9148 210.766 27.3035 211.124 26.6421 211.123Z" fill="#E47E25"/>
<path d="M41.4369 215.147C40.4156 215.147 39.5876 214.307 39.5876 213.27V205.763C39.5876 204.726 40.4156 203.886 41.4369 203.886C42.4581 203.886 43.2861 204.726 43.2861 205.763V213.27C43.2861 214.307 42.4581 215.147 41.4369 215.147Z" fill="#E47E25"/>
<path d="M56.227 211.123C55.5657 211.124 54.9545 210.766 54.6238 210.184L50.9253 203.685C50.5898 203.105 50.5866 202.385 50.9171 201.801C51.2476 201.218 51.8611 200.858 52.5247 200.86C53.1883 200.861 53.8002 201.223 54.1282 201.809L57.8266 208.308C58.1568 208.888 58.157 209.604 57.827 210.184C57.4972 210.765 56.8874 211.123 56.227 211.123Z" fill="#E47E25"/>
<path d="M67.0557 200.133C66.7311 200.133 66.4122 200.046 66.1311 199.881L59.7272 196.127C59.1503 195.795 58.7935 195.173 58.792 194.5C58.7905 193.826 59.1448 193.204 59.7202 192.868C60.2956 192.533 61.004 192.536 61.5764 192.876L67.9803 196.631C68.7051 197.055 69.0584 197.921 68.8418 198.742C68.6252 199.562 67.8926 200.133 67.0557 200.133Z" fill="#E47E25"/>
<path d="M71.0224 185.118H63.6255C62.6042 185.118 61.7764 184.278 61.7764 183.241C61.7764 182.204 62.6042 181.365 63.6255 181.365H71.0224C72.0437 181.365 72.8716 182.204 72.8716 183.241C72.8716 184.278 72.0437 185.118 71.0224 185.118Z" fill="#E47E25"/>
<path d="M60.6574 173.857C59.8205 173.857 59.0879 173.287 58.8713 172.466C58.6547 171.646 59.008 170.78 59.7328 170.355L66.1367 166.602C66.7091 166.261 67.4175 166.257 67.9929 166.593C68.5683 166.928 68.9226 167.551 68.9211 168.225C68.9196 168.898 68.5628 169.519 67.9859 169.852L61.582 173.606C61.3009 173.77 60.9821 173.857 60.6574 173.857Z" fill="#E47E25"/>
<path d="M52.5308 165.612C51.8705 165.612 51.2606 165.253 50.9308 164.673C50.6009 164.092 50.6011 163.378 50.9312 162.797L54.6297 156.298C54.9577 155.712 55.5696 155.35 56.2332 155.348C56.8968 155.347 57.5102 155.707 57.8408 156.291C58.1713 156.874 58.1681 157.594 57.8325 158.175L54.1341 164.674C53.8034 165.255 53.1921 165.613 52.5308 165.612Z" fill="#E47E25"/>
</g>
<defs>
<filter id="filter0_d" x="0" y="56" width="315.698" height="191.866" filterUnits="userSpaceOnUse" color-interpolation-filters="sRGB">
<feFlood flood-opacity="0" result="BackgroundImageFix"/>
<feColorMatrix in="SourceAlpha" type="matrix" values="0 0 0 0 0 0 0 0 0 0 0 0 0 0 0 0 0 0 127 0"/>
<feOffset dy="4"/>
<feGaussianBlur stdDeviation="5"/>
<feColorMatrix type="matrix" values="0 0 0 0 0 0 0 0 0 0 0 0 0 0 0 0 0 0 0.05 0"/>
<feBlend mode="normal" in2="BackgroundImageFix" result="effect1_dropShadow"/>
<feBlend mode="normal" in="SourceGraphic" in2="effect1_dropShadow" result="shape"/>
</filter>
</defs>
</svg>
