<svg width="336" height="318" viewBox="0 0 336 318" fill="none" xmlns="http://www.w3.org/2000/svg">
<g clip-path="url(#clip0)">
<g filter="url(#filter0_d)">
<path d="M79.0486 102.303C36.6798 92.6937 15.9689 115.017 8.2389 134.892C-32.7828 240.366 87.8853 287.623 182.423 267.218C225.093 258.007 281.883 206.024 294.767 157.382C298.374 119.201 291.674 105.279 271.576 102.303C251.478 99.3263 238.595 115.017 200.975 124.955C181.815 130.016 132.01 114.314 79.0486 102.303Z" fill="white"/>
</g>
<mask id="mask0" mask-type="alpha" maskUnits="userSpaceOnUse" x="0" y="0" width="314" height="318">
<path d="M156.663 318C243.185 318 313.325 246.813 313.325 159C313.325 71.1867 243.185 0 156.663 0C70.1402 0 0 71.1867 0 159C0 246.813 70.1402 318 156.663 318Z" fill="#C4C4C4"/>
</mask>
<g mask="url(#mask0)">
<path d="M58.3216 314.772C59.0866 301.439 69.6134 293.638 74.8793 282.232C82.3092 266.145 68.9358 252.572 86.2731 236.988C103.611 221.403 94.694 214.365 105.095 201.705C115.495 189.044 136.619 192.85 136.619 192.85H179.901C179.901 192.85 201.033 189.041 211.425 201.705C221.819 214.367 212.913 221.403 230.248 236.988C247.583 252.572 234.212 266.145 241.639 282.23C244.765 288.997 249.837 294.171 253.652 300.45C271.254 329.405 244.391 365.428 213.845 365.428C213.845 365.428 102.738 365.406 102.678 365.428C82.0784 372.593 67.2161 369.969 70.104 351.352C72.1516 338.205 57.571 327.879 58.3216 314.772Z" fill="#05C46B"/>
<path d="M158.578 170.778L179.371 167.412V214.711C179.371 233.498 160.047 237.947 158.578 238.26H158.529V238.241C157.059 237.927 137.785 233.487 137.785 214.701V167.412L158.578 170.778Z" fill="#F9D3B7"/>
<path d="M158.58 141.385L137.791 138.023V185.322C137.728 189.029 138.596 192.692 140.314 195.964C142.032 199.237 144.543 202.012 147.61 204.027C152.533 207.355 158.386 208.974 164.292 208.641C169.636 208.422 176.74 205.854 178.928 200.904C180.454 197.453 179.378 192.049 179.378 185.322V138.023L158.58 141.385Z" fill="#F7B7A1"/>
<path d="M197.23 131.245C197.23 131.245 197.527 127.466 204.796 125.984C212.065 124.502 214.738 149.869 201.446 152.575C188.156 155.282 189.662 136.503 197.23 131.245Z" fill="#F4C19F"/>
<path d="M129.533 145.029C129.533 145.029 127.833 141.66 120.546 143.141C113.26 144.623 120.456 169.069 133.745 166.362C147.033 163.656 138.52 146.918 129.533 145.029Z" fill="#F4C19F"/>
<path d="M173.76 193.53C183.422 191.533 191.912 185.737 197.375 177.407C202.84 169.078 204.833 158.891 202.921 149.075L197.389 121.088C195.418 111.284 189.704 102.67 181.495 97.1271C173.286 91.5845 163.251 89.5639 153.579 91.5069C143.922 93.5074 135.438 99.3039 129.977 107.631C124.516 115.958 122.524 126.139 124.432 135.953L129.965 163.934C131.934 173.738 137.645 182.353 145.85 187.898C154.055 193.443 164.089 195.468 173.76 193.53Z" fill="#F9D3B7"/>
<path d="M134.997 160.823C132.735 149.39 147.352 150.184 164.498 146.691C181.643 143.197 194.824 136.744 197.086 148.17C199.347 159.595 183.185 151.002 166.04 154.493C148.894 157.983 137.258 172.257 134.997 160.823Z" fill="#F7B7A1"/>
<path d="M111.05 134.259C120.679 120.915 114.611 121.953 116.151 108.666C117.691 95.3794 131.633 84.0718 131.633 84.0718C131.633 84.0718 117.931 72.8309 127.746 64.4766C130.33 62.0725 133.398 60.2676 136.739 59.1873C140.078 58.1069 143.609 57.7769 147.088 58.2202C147.088 58.2202 156.074 41.4994 172.958 51.6876C187.455 60.4339 179.663 71.7808 173.929 77.0783C179.115 79.0505 189.814 84.0324 194.625 92.6874C201.101 104.34 195.49 106.662 209.441 115.204C223.394 123.746 195.306 137.34 202.84 147.743C210.374 158.146 205.269 163.961 205.269 163.961C205.717 161.525 205.365 159.006 204.268 156.791C203.172 154.576 201.391 152.787 199.196 151.697C191.424 148 188.624 141.768 195.252 129.119C201.88 116.471 155.356 128.207 142.776 102.181C141.064 131.118 118.507 132.47 129.432 141.543C140.357 150.618 140.141 157.449 134.377 163.917C132.766 165.78 131.802 168.129 131.632 170.603C131.461 173.076 132.093 175.537 133.432 177.61C133.432 177.61 126.508 174.256 129.502 161.699C132.497 149.141 101.425 147.605 111.05 134.259Z" fill="#081E29"/>
<path d="M183.177 132.903C180.837 133.476 178.409 133.571 176.033 133.185C173.656 132.799 171.379 131.939 169.333 130.653" stroke="#081E29" stroke-width="1.132" stroke-linecap="round" stroke-linejoin="round"/>
<path d="M142.427 141.203C144.806 140.815 147.085 139.952 149.132 138.665C151.179 137.377 152.955 135.689 154.356 133.7" stroke="#081E29" stroke-width="1.132" stroke-linecap="round" stroke-linejoin="round"/>
<path d="M153.117 146.726C153.227 147.283 153.172 147.862 152.958 148.388C152.744 148.914 152.381 149.363 151.916 149.68C151.45 149.997 150.902 150.166 150.341 150.167C149.782 150.168 149.233 150 148.767 149.685C148.3 149.369 147.936 148.92 147.72 148.395C147.505 147.87 147.448 147.291 147.557 146.734C147.665 146.175 147.934 145.663 148.33 145.26C148.725 144.856 149.23 144.582 149.78 144.469C150.145 144.395 150.521 144.395 150.886 144.468C151.252 144.54 151.599 144.687 151.909 144.896C152.218 145.105 152.485 145.375 152.692 145.689C152.9 146.003 153.044 146.355 153.117 146.726Z" fill="#081E29"/>
<path d="M180.974 141.056C181.084 141.614 181.03 142.192 180.816 142.718C180.603 143.244 180.24 143.694 179.774 144.011C179.31 144.329 178.761 144.499 178.201 144.5C177.641 144.501 177.092 144.333 176.626 144.018C176.159 143.703 175.794 143.255 175.579 142.73C175.363 142.204 175.305 141.626 175.414 141.068C175.522 140.509 175.791 139.996 176.187 139.593C176.582 139.19 177.087 138.915 177.637 138.803C178.374 138.653 179.139 138.806 179.764 139.229C180.39 139.651 180.826 140.308 180.974 141.056Z" fill="#081E29"/>
<path d="M165.237 168.103C165.12 167.138 165.077 166.165 165.108 165.194C165.037 164.445 165.243 163.696 165.685 163.091C166.127 162.486 166.775 162.07 167.502 161.922C168.229 161.774 168.984 161.905 169.622 162.289C170.259 162.674 170.734 163.285 170.954 164.003C171.352 164.887 171.682 165.801 171.94 166.737C172.315 168.017 172.39 169.367 172.157 170.681C172.098 171.332 171.834 171.946 171.404 172.432C170.973 172.919 170.4 173.25 169.769 173.379C169.138 173.508 168.482 173.426 167.901 173.146C167.319 172.865 166.843 172.403 166.541 171.826C165.824 170.705 165.378 169.43 165.237 168.103Z" fill="#081E29"/>
<path d="M162.954 138.881C162.954 138.881 173.024 154.313 166.276 155.686" stroke="#081E29" stroke-width="0.566" stroke-linecap="round" stroke-linejoin="round"/>
<path d="M188.731 255.802L180.78 208.738C180.78 208.738 174.755 204.456 175.221 193.123C175.688 181.791 172.404 176.489 169.088 172.589C166.643 170.218 171.104 165.686 178.641 182.671C176.29 168.29 169.36 166.071 170.213 164.316C171.065 162.561 177.674 164.893 181.786 177.648C180.13 164.925 172.265 160.545 173.441 158.666C175.175 155.917 185.697 165.847 185.93 178.84C188.002 165.859 179.204 160.409 180.698 157.34C182.192 154.271 193.143 167.656 191.234 186.211C194.495 180.352 190.23 172.104 192.984 171.085C195.738 170.067 200.72 188.876 191.254 206.443C196.787 223.451 208.052 249.237 208.052 249.237L188.731 255.802Z" fill="#F9C4A0"/>
<path d="M229.671 390.296C229.671 390.296 250.961 379.991 244.002 350.381C237.329 322.032 239.746 275.175 209.665 263.739C208.541 263.316 207.331 263.182 206.144 263.351C204.957 263.52 203.829 263.986 202.864 264.708C197.935 268.056 192.161 269.896 186.231 270.007C184.862 270.073 183.541 270.542 182.429 271.357C181.318 272.171 180.465 273.296 179.974 274.595C177.254 281.732 173.397 296.91 177.813 318.999C184.128 350.599 174.655 386.435 196.704 392.495C218.754 398.554 229.671 390.296 229.671 390.296Z" fill="#05C46B"/>
<path d="M139.422 182.42C139.422 182.42 153.171 198.689 173.757 193.53" stroke="#081E29" stroke-width="0.566" stroke-linecap="round" stroke-linejoin="round"/>
<path d="M215.918 72.3933C219.736 72.3933 222.83 69.2526 222.83 65.3785C222.83 61.5043 219.736 58.3636 215.918 58.3636C212.102 58.3636 209.006 61.5043 209.006 65.3785C209.006 69.2526 212.102 72.3933 215.918 72.3933Z" fill="#F19B1F"/>
<path d="M217.069 62.4557C217.387 62.4557 217.645 62.194 217.645 61.8711C217.645 61.5482 217.387 61.2865 217.069 61.2865C216.751 61.2865 216.493 61.5482 216.493 61.8711C216.493 62.194 216.751 62.4557 217.069 62.4557Z" fill="#F8E9AF"/>
<path d="M213.614 68.3014C213.932 68.3014 214.19 68.0397 214.19 67.7167C214.19 67.3939 213.932 67.1322 213.614 67.1322C213.295 67.1322 213.037 67.3939 213.037 67.7167C213.037 68.0397 213.295 68.3014 213.614 68.3014Z" fill="#F8E9AF"/>
<path d="M213.614 64.7939C214.251 64.7939 214.766 64.2705 214.766 63.6247C214.766 62.979 214.251 62.4556 213.614 62.4556C212.978 62.4556 212.462 62.979 212.462 63.6247C212.462 64.2705 212.978 64.7939 213.614 64.7939Z" fill="#F8E9AF"/>
<path d="M218.221 68.886C219.175 68.886 219.949 68.1008 219.949 67.1322C219.949 66.1637 219.175 65.3785 218.221 65.3785C217.266 65.3785 216.493 66.1637 216.493 67.1322C216.493 68.1008 217.266 68.886 218.221 68.886Z" fill="#F8E9AF"/>
<path d="M215.925 58.9482C215.608 58.9482 215.349 58.6865 215.349 58.3637V56.0253C215.349 55.7025 215.608 55.4408 215.925 55.4408C216.244 55.4408 216.501 55.7025 216.501 56.0253V58.3637C216.501 58.6865 216.244 58.9482 215.925 58.9482Z" fill="#E47E25"/>
<path d="M212.472 59.8876C212.265 59.8877 212.075 59.7763 211.972 59.5952L210.819 57.5709C210.715 57.39 210.714 57.166 210.817 56.9841C210.92 56.8022 211.111 56.6903 211.318 56.6907C211.524 56.6912 211.715 56.804 211.817 56.9864L212.969 59.0107C213.072 59.1915 213.072 59.4142 212.969 59.595C212.867 59.7759 212.677 59.8873 212.472 59.8876Z" fill="#E47E25"/>
<path d="M209.94 62.4555C209.839 62.4555 209.739 62.4285 209.652 62.3773L207.657 61.2081C207.478 61.1044 207.367 60.9109 207.366 60.7012C207.366 60.4915 207.476 60.2975 207.655 60.193C207.835 60.0885 208.055 60.0896 208.233 60.1956L210.228 61.3648C210.453 61.497 210.564 61.7667 210.496 62.0222C210.429 62.2779 210.201 62.4555 209.94 62.4555Z" fill="#E47E25"/>
<path d="M209.015 65.9631H206.711C206.393 65.9631 206.135 65.7014 206.135 65.3785C206.135 65.0557 206.393 64.7939 206.711 64.7939H209.015C209.333 64.7939 209.591 65.0557 209.591 65.3785C209.591 65.7014 209.333 65.9631 209.015 65.9631Z" fill="#E47E25"/>
<path d="M207.946 70.6396C207.685 70.6396 207.457 70.4619 207.389 70.2063C207.322 69.9508 207.433 69.6811 207.658 69.5488L209.653 68.3796C209.831 68.2735 210.052 68.2725 210.231 68.377C210.41 68.4815 210.52 68.6754 210.519 68.8852C210.519 69.095 210.408 69.2884 210.229 69.3921L208.234 70.5612C208.147 70.6125 208.047 70.6396 207.946 70.6396Z" fill="#E47E25"/>
<path d="M211.318 74.0628C211.112 74.0626 210.922 73.9511 210.819 73.7703C210.717 73.5895 210.717 73.3668 210.82 73.186L211.972 71.1616C212.074 70.9793 212.264 70.8664 212.472 70.866C212.678 70.8655 212.869 70.9775 212.972 71.1594C213.076 71.3413 213.074 71.5653 212.969 71.7462L211.817 73.7705C211.715 73.9516 211.524 74.063 211.318 74.0628Z" fill="#E47E25"/>
<path d="M215.925 75.3163C215.608 75.3163 215.349 75.0545 215.349 74.7316V72.3934C215.349 72.0706 215.608 71.8088 215.925 71.8088C216.244 71.8088 216.501 72.0706 216.501 72.3934V74.7316C216.501 75.0545 216.244 75.3163 215.925 75.3163Z" fill="#E47E25"/>
<path d="M220.535 74.0628C220.328 74.063 220.138 73.9516 220.035 73.7705L218.883 71.7462C218.778 71.5653 218.777 71.3413 218.88 71.1594C218.983 70.9775 219.175 70.8655 219.381 70.866C219.588 70.8664 219.779 70.9793 219.881 71.1616L221.032 73.186C221.135 73.3668 221.135 73.5895 221.032 73.7703C220.93 73.9511 220.74 74.0626 220.535 74.0628Z" fill="#E47E25"/>
<path d="M223.906 70.6396C223.805 70.6396 223.706 70.6125 223.618 70.5612L221.624 69.3921C221.444 69.2884 221.333 69.095 221.332 68.8852C221.332 68.6754 221.443 68.4815 221.622 68.377C221.801 68.2725 222.022 68.2735 222.2 68.3796L224.194 69.5488C224.42 69.6811 224.53 69.9508 224.462 70.2063C224.395 70.4619 224.167 70.6396 223.906 70.6396Z" fill="#E47E25"/>
<path d="M225.142 65.9631H222.837C222.52 65.9631 222.261 65.7014 222.261 65.3785C222.261 65.0557 222.52 64.7939 222.837 64.7939H225.142C225.459 64.7939 225.717 65.0557 225.717 65.3785C225.717 65.7014 225.459 65.9631 225.142 65.9631Z" fill="#E47E25"/>
<path d="M221.913 62.4555C221.652 62.4555 221.424 62.2779 221.356 62.0222C221.289 61.7667 221.398 61.497 221.624 61.3648L223.619 60.1956C223.798 60.0896 224.018 60.0885 224.198 60.193C224.377 60.2975 224.487 60.4915 224.486 60.7012C224.486 60.9109 224.375 61.1044 224.195 61.2081L222.2 62.3773C222.112 62.4285 222.014 62.4555 221.913 62.4555Z" fill="#E47E25"/>
<path d="M219.382 59.8876C219.177 59.8873 218.986 59.7759 218.884 59.595C218.781 59.4142 218.781 59.1915 218.884 59.0107L220.036 56.9864C220.139 56.804 220.329 56.6912 220.536 56.6907C220.743 56.6903 220.933 56.8022 221.036 56.9841C221.14 57.166 221.139 57.39 221.033 57.5709L219.882 59.5952C219.779 59.7763 219.588 59.8877 219.382 59.8876Z" fill="#E47E25"/>
<path d="M63.3785 137.248C67.1957 137.248 70.2902 134.108 70.2902 130.234C70.2902 126.36 67.1957 123.219 63.3785 123.219C59.5612 123.219 56.4667 126.36 56.4667 130.234C56.4667 134.108 59.5612 137.248 63.3785 137.248Z" fill="#F19B1F"/>
<path d="M64.5291 127.311C64.8473 127.311 65.1052 127.049 65.1052 126.726C65.1052 126.404 64.8473 126.141 64.5291 126.141C64.211 126.141 63.9532 126.404 63.9532 126.726C63.9532 127.049 64.211 127.311 64.5291 127.311Z" fill="#F8E9AF"/>
<path d="M61.0738 133.156C61.3918 133.156 61.6497 132.895 61.6497 132.573C61.6497 132.249 61.3918 131.988 61.0738 131.988C60.7557 131.988 60.4978 132.249 60.4978 132.573C60.4978 132.895 60.7557 133.156 61.0738 133.156Z" fill="#F8E9AF"/>
<path d="M61.074 129.649C61.7102 129.649 62.226 129.126 62.226 128.48C62.226 127.834 61.7102 127.311 61.074 127.311C60.4378 127.311 59.9221 127.834 59.9221 128.48C59.9221 129.126 60.4378 129.649 61.074 129.649Z" fill="#F8E9AF"/>
<path d="M65.6811 133.741C66.6354 133.741 67.409 132.956 67.409 131.988C67.409 131.019 66.6354 130.234 65.6811 130.234C64.7268 130.234 63.9532 131.019 63.9532 131.988C63.9532 132.956 64.7268 133.741 65.6811 133.741Z" fill="#F8E9AF"/>
<path d="M63.3858 123.803C63.0676 123.803 62.8097 123.542 62.8097 123.219V120.881C62.8097 120.558 63.0676 120.296 63.3858 120.296C63.7038 120.296 63.9617 120.558 63.9617 120.881V123.219C63.9617 123.542 63.7038 123.803 63.3858 123.803Z" fill="#E47E25"/>
<path d="M59.9314 124.743C59.7253 124.743 59.535 124.632 59.432 124.451L58.28 122.426C58.1755 122.245 58.1745 122.021 58.2774 121.839C58.3804 121.657 58.5715 121.545 58.7782 121.546C58.9848 121.546 59.1755 121.659 59.2776 121.841L60.4296 123.866C60.5324 124.047 60.5325 124.269 60.4297 124.45C60.3269 124.631 60.137 124.743 59.9314 124.743Z" fill="#E47E25"/>
<path d="M57.3999 127.311C57.2988 127.311 57.1996 127.284 57.112 127.232L55.1174 126.063C54.9376 125.959 54.8265 125.766 54.826 125.557C54.8256 125.346 54.9359 125.153 55.1151 125.048C55.2944 124.944 55.515 124.945 55.6933 125.05L57.6879 126.22C57.9137 126.353 58.0238 126.622 57.9563 126.878C57.8888 127.133 57.6606 127.311 57.3999 127.311Z" fill="#E47E25"/>
<path d="M56.475 130.818H54.171C53.853 130.818 53.5951 130.557 53.5951 130.234C53.5951 129.911 53.853 129.649 54.171 129.649H56.475C56.7931 129.649 57.0509 129.911 57.0509 130.234C57.0509 130.557 56.7931 130.818 56.475 130.818Z" fill="#E47E25"/>
<path d="M55.4061 135.495C55.1454 135.495 54.9172 135.317 54.8497 135.061C54.7823 134.806 54.8924 134.536 55.1181 134.404L57.1127 133.235C57.291 133.129 57.5117 133.128 57.6909 133.233C57.8701 133.337 57.9804 133.531 57.98 133.741C57.9796 133.95 57.8684 134.144 57.6887 134.247L55.6941 135.417C55.6066 135.468 55.5072 135.495 55.4061 135.495Z" fill="#E47E25"/>
<path d="M58.7784 138.918C58.5726 138.918 58.3827 138.806 58.2799 138.626C58.1772 138.445 58.1773 138.222 58.2801 138.041L59.432 136.017C59.5343 135.834 59.7248 135.722 59.9315 135.721C60.1382 135.721 60.3293 135.833 60.4322 136.015C60.5351 136.196 60.5342 136.421 60.4296 136.602L59.2777 138.626C59.1748 138.807 58.9843 138.918 58.7784 138.918Z" fill="#E47E25"/>
<path d="M63.3858 140.171C63.0676 140.171 62.8097 139.909 62.8097 139.587V137.248C62.8097 136.926 63.0676 136.664 63.3858 136.664C63.7038 136.664 63.9617 136.926 63.9617 137.248V139.587C63.9617 139.909 63.7038 140.171 63.3858 140.171Z" fill="#E47E25"/>
<path d="M67.9945 138.918C67.7886 138.918 67.5981 138.807 67.4952 138.626L66.3432 136.602C66.2387 136.421 66.2378 136.196 66.3406 136.015C66.4436 135.833 66.6347 135.721 66.8414 135.721C67.0481 135.722 67.2386 135.834 67.3408 136.017L68.4928 138.041C68.5956 138.222 68.5956 138.445 68.4929 138.626C68.3902 138.806 68.2003 138.918 67.9945 138.918Z" fill="#E47E25"/>
<path d="M71.3664 135.495C71.2653 135.495 71.1659 135.468 71.0784 135.417L69.0838 134.247C68.9041 134.144 68.793 133.95 68.7925 133.741C68.7921 133.531 68.9024 133.337 69.0816 133.233C69.2608 133.128 69.4815 133.129 69.6598 133.235L71.6544 134.404C71.8802 134.536 71.9902 134.806 71.9228 135.061C71.8553 135.317 71.6271 135.495 71.3664 135.495Z" fill="#E47E25"/>
<path d="M72.6015 130.818H70.2975C69.9794 130.818 69.7215 130.557 69.7215 130.234C69.7215 129.911 69.9794 129.649 70.2975 129.649H72.6015C72.9195 129.649 73.1774 129.911 73.1774 130.234C73.1774 130.557 72.9195 130.818 72.6015 130.818Z" fill="#E47E25"/>
<path d="M69.3726 127.311C69.1119 127.311 68.8837 127.133 68.8162 126.878C68.7488 126.622 68.8588 126.353 69.0846 126.22L71.0791 125.05C71.2575 124.945 71.4781 124.944 71.6574 125.048C71.8366 125.153 71.9469 125.346 71.9465 125.557C71.9459 125.766 71.8348 125.959 71.6551 126.063L69.6605 127.232C69.5729 127.284 69.4737 127.311 69.3726 127.311Z" fill="#E47E25"/>
<path d="M66.8426 124.743C66.6368 124.743 66.4469 124.631 66.3441 124.45C66.2415 124.269 66.2415 124.047 66.3443 123.866L67.4963 121.841C67.5985 121.659 67.789 121.546 67.9957 121.546C68.2024 121.545 68.3935 121.657 68.4965 121.839C68.5993 122.021 68.5984 122.245 68.4939 122.426L67.3419 124.451C67.239 124.632 67.0485 124.743 66.8426 124.743Z" fill="#E47E25"/>
<path d="M261.263 164.261C266.687 164.261 271.085 159.798 271.085 154.293C271.085 148.787 266.687 144.325 261.263 144.325C255.838 144.325 251.441 148.787 251.441 154.293C251.441 159.798 255.838 164.261 261.263 164.261Z" fill="#F19B1F"/>
<path d="M262.899 150.139C263.352 150.139 263.718 149.768 263.718 149.308C263.718 148.85 263.352 148.478 262.899 148.478C262.448 148.478 262.081 148.85 262.081 149.308C262.081 149.768 262.448 150.139 262.899 150.139Z" fill="#F8E9AF"/>
<path d="M257.99 158.447C258.442 158.447 258.809 158.074 258.809 157.615C258.809 157.157 258.442 156.784 257.99 156.784C257.538 156.784 257.172 157.157 257.172 157.615C257.172 158.074 257.538 158.447 257.99 158.447Z" fill="#F8E9AF"/>
<path d="M257.988 153.462C258.892 153.462 259.625 152.718 259.625 151.801C259.625 150.883 258.892 150.139 257.988 150.139C257.084 150.139 256.352 150.883 256.352 151.801C256.352 152.718 257.084 153.462 257.988 153.462Z" fill="#F8E9AF"/>
<path d="M264.537 159.277C265.892 159.277 266.992 158.161 266.992 156.784C266.992 155.409 265.892 154.293 264.537 154.293C263.181 154.293 262.081 155.409 262.081 156.784C262.081 158.161 263.181 159.277 264.537 159.277Z" fill="#F8E9AF"/>
<path d="M261.276 145.155C260.825 145.155 260.458 144.783 260.458 144.325V141.002C260.458 140.543 260.825 140.171 261.276 140.171C261.729 140.171 262.094 140.543 262.094 141.002V144.325C262.094 144.783 261.729 145.155 261.276 145.155Z" fill="#E47E25"/>
<path d="M256.366 146.49C256.073 146.49 255.803 146.332 255.657 146.075L254.02 143.198C253.872 142.941 253.87 142.623 254.016 142.365C254.162 142.105 254.433 141.946 254.727 141.947C255.021 141.948 255.292 142.108 255.437 142.368L257.074 145.244C257.22 145.501 257.22 145.818 257.074 146.074C256.929 146.331 256.659 146.49 256.366 146.49Z" fill="#E47E25"/>
<path d="M252.769 150.139C252.626 150.139 252.484 150.101 252.36 150.028L249.525 148.367C249.27 148.219 249.112 147.944 249.111 147.646C249.111 147.348 249.268 147.073 249.522 146.924C249.777 146.776 250.09 146.777 250.344 146.927L253.178 148.59C253.499 148.777 253.655 149.161 253.559 149.524C253.464 149.887 253.139 150.139 252.769 150.139Z" fill="#E47E25"/>
<path d="M251.455 155.123H248.18C247.729 155.123 247.362 154.752 247.362 154.293C247.362 153.834 247.729 153.462 248.18 153.462H251.455C251.906 153.462 252.273 153.834 252.273 154.293C252.273 154.752 251.906 155.123 251.455 155.123Z" fill="#E47E25"/>
<path d="M249.936 161.769C249.566 161.769 249.241 161.517 249.145 161.154C249.049 160.79 249.206 160.407 249.526 160.219L252.361 158.557C252.614 158.407 252.928 158.406 253.182 158.554C253.438 158.702 253.594 158.978 253.593 159.276C253.592 159.574 253.435 159.849 253.179 159.996L250.345 161.658C250.221 161.73 250.08 161.769 249.936 161.769Z" fill="#E47E25"/>
<path d="M254.728 166.633C254.435 166.633 254.165 166.475 254.02 166.218C253.874 165.96 253.874 165.645 254.02 165.387L255.657 162.511C255.802 162.251 256.073 162.091 256.367 162.091C256.661 162.09 256.932 162.249 257.078 162.507C257.224 162.766 257.223 163.084 257.075 163.341L255.437 166.218C255.291 166.475 255.021 166.634 254.728 166.633Z" fill="#E47E25"/>
<path d="M261.276 168.415C260.825 168.415 260.458 168.043 260.458 167.584V164.261C260.458 163.802 260.825 163.43 261.276 163.43C261.729 163.43 262.094 163.802 262.094 164.261V167.584C262.094 168.043 261.729 168.415 261.276 168.415Z" fill="#E47E25"/>
<path d="M267.823 166.633C267.53 166.634 267.259 166.475 267.113 166.218L265.476 163.341C265.328 163.084 265.326 162.766 265.472 162.507C265.618 162.249 265.89 162.09 266.184 162.091C266.478 162.091 266.748 162.251 266.893 162.511L268.531 165.387C268.676 165.645 268.676 165.96 268.531 166.218C268.385 166.475 268.115 166.633 267.823 166.633Z" fill="#E47E25"/>
<path d="M272.616 161.769C272.471 161.769 272.33 161.73 272.206 161.658L269.372 159.996C269.116 159.849 268.959 159.574 268.958 159.276C268.958 158.978 269.114 158.702 269.369 158.554C269.624 158.406 269.937 158.407 270.19 158.557L273.025 160.219C273.345 160.407 273.502 160.79 273.406 161.154C273.31 161.517 272.986 161.769 272.616 161.769Z" fill="#E47E25"/>
<path d="M274.371 155.123H271.096C270.645 155.123 270.278 154.752 270.278 154.293C270.278 153.834 270.645 153.462 271.096 153.462H274.371C274.823 153.462 275.189 153.834 275.189 154.293C275.189 154.752 274.823 155.123 274.371 155.123Z" fill="#E47E25"/>
<path d="M269.783 150.139C269.413 150.139 269.089 149.887 268.993 149.524C268.897 149.161 269.054 148.777 269.374 148.59L272.208 146.927C272.462 146.777 272.775 146.776 273.03 146.924C273.284 147.073 273.441 147.348 273.441 147.646C273.44 147.944 273.282 148.219 273.027 148.367L270.192 150.028C270.068 150.101 269.928 150.139 269.783 150.139Z" fill="#E47E25"/>
<path d="M266.186 146.49C265.893 146.49 265.624 146.331 265.478 146.074C265.332 145.818 265.332 145.501 265.478 145.244L267.115 142.368C267.26 142.108 267.531 141.948 267.825 141.947C268.119 141.946 268.39 142.105 268.536 142.365C268.683 142.623 268.681 142.941 268.533 143.198L266.896 146.075C266.75 146.332 266.479 146.49 266.186 146.49Z" fill="#E47E25"/>
<path d="M31.4083 243.763C43.6638 243.763 53.5988 233.68 53.5988 221.241C53.5988 208.803 43.6638 198.72 31.4083 198.72C19.1527 198.72 9.2177 208.803 9.2177 221.241C9.2177 233.68 19.1527 243.763 31.4083 243.763Z" fill="#F19B1F"/>
<path d="M35.1046 211.857C36.1259 211.857 36.9538 211.017 36.9538 209.98C36.9538 208.944 36.1259 208.104 35.1046 208.104C34.0833 208.104 33.2553 208.944 33.2553 209.98C33.2553 211.017 34.0833 211.857 35.1046 211.857Z" fill="#F8E9AF"/>
<path d="M24.0117 230.625C25.033 230.625 25.861 229.785 25.861 228.749C25.861 227.712 25.033 226.872 24.0117 226.872C22.9904 226.872 22.1625 227.712 22.1625 228.749C22.1625 229.785 22.9904 230.625 24.0117 230.625Z" fill="#F8E9AF"/>
<path d="M24.0089 219.365C26.0515 219.365 27.7074 217.684 27.7074 215.611C27.7074 213.538 26.0515 211.857 24.0089 211.857C21.9664 211.857 20.3106 213.538 20.3106 215.611C20.3106 217.684 21.9664 219.365 24.0089 219.365Z" fill="#F8E9AF"/>
<path d="M38.8031 232.502C41.8669 232.502 44.3507 229.981 44.3507 226.872C44.3507 223.762 41.8669 221.241 38.8031 221.241C35.7392 221.241 33.2553 223.762 33.2553 226.872C33.2553 229.981 35.7392 232.502 38.8031 232.502Z" fill="#F8E9AF"/>
<path d="M31.4368 200.596C30.4155 200.596 29.5876 199.756 29.5876 198.72V191.212C29.5876 190.176 30.4155 189.336 31.4368 189.336C32.4581 189.336 33.2861 190.176 33.2861 191.212V198.72C33.2861 199.756 32.4581 200.596 31.4368 200.596Z" fill="#E47E25"/>
<path d="M20.3444 203.612C19.6831 203.613 19.0718 203.255 18.7412 202.674L15.0427 196.175C14.7071 195.594 14.7039 194.874 15.0344 194.291C15.365 193.707 15.9784 193.347 16.6421 193.348C17.3056 193.35 17.9176 193.712 18.2455 194.298L21.944 200.797C22.2741 201.378 22.2743 202.092 21.9444 202.673C21.6146 203.253 21.0047 203.612 20.3444 203.612Z" fill="#E47E25"/>
<path d="M12.2163 211.857C11.8916 211.857 11.5727 211.77 11.2917 211.606L4.88784 207.852C4.31097 207.519 3.95406 206.898 3.95261 206.225C3.95115 205.551 4.30536 204.928 4.88077 204.593C5.45619 204.257 6.16458 204.261 6.73704 204.602L13.1409 208.355C13.8657 208.78 14.219 209.646 14.0023 210.466C13.7858 211.287 13.0532 211.857 12.2163 211.857Z" fill="#E47E25"/>
<path d="M9.24607 223.118H1.84922C0.827922 223.118 0 222.278 0 221.241C0 220.204 0.827922 219.365 1.84922 219.365H9.24607C10.2674 219.365 11.0953 220.204 11.0953 221.241C11.0953 222.278 10.2674 223.118 9.24607 223.118Z" fill="#E47E25"/>
<path d="M5.81498 238.133C4.97804 238.133 4.24547 237.562 4.02886 236.742C3.81225 235.921 4.16559 235.055 4.89037 234.631L11.2942 230.876C11.8667 230.536 12.5751 230.533 13.1505 230.868C13.7259 231.204 14.0801 231.826 14.0786 232.5C14.0772 233.173 13.7202 233.795 13.1435 234.127L6.73959 237.881C6.45847 238.046 6.13959 238.133 5.81498 238.133Z" fill="#E47E25"/>
<path d="M16.6421 249.123C15.9818 249.123 15.372 248.765 15.0421 248.184C14.7123 247.604 14.7124 246.888 15.0426 246.308L18.741 239.809C19.0689 239.223 19.6809 238.861 20.3445 238.86C21.008 238.858 21.6216 239.218 21.952 239.801C22.2826 240.385 22.2795 241.105 21.9438 241.685L18.2454 248.184C17.9148 248.766 17.3035 249.124 16.6421 249.123Z" fill="#E47E25"/>
<path d="M31.4368 253.147C30.4155 253.147 29.5876 252.307 29.5876 251.27V243.763C29.5876 242.726 30.4155 241.886 31.4368 241.886C32.4581 241.886 33.2861 242.726 33.2861 243.763V251.27C33.2861 252.307 32.4581 253.147 31.4368 253.147Z" fill="#E47E25"/>
<path d="M46.227 249.123C45.5657 249.124 44.9544 248.766 44.6238 248.184L40.9253 241.685C40.5897 241.105 40.5865 240.385 40.9171 239.801C41.2476 239.218 41.8611 238.858 42.5247 238.86C43.1883 238.861 43.8002 239.223 44.1281 239.809L47.8266 246.308C48.1567 246.888 48.1569 247.604 47.827 248.184C47.4972 248.765 46.8874 249.123 46.227 249.123Z" fill="#E47E25"/>
<path d="M57.0557 238.133C56.731 238.133 56.4121 238.046 56.1311 237.881L49.7272 234.127C49.1503 233.795 48.7935 233.173 48.7919 232.5C48.7905 231.826 49.1447 231.204 49.7202 230.868C50.2956 230.533 51.004 230.536 51.5764 230.876L57.9803 234.631C58.7051 235.055 59.0584 235.921 58.8417 236.742C58.6252 237.562 57.8926 238.133 57.0557 238.133Z" fill="#E47E25"/>
<path d="M61.0223 223.118H53.6255C52.6042 223.118 51.7764 222.278 51.7764 221.241C51.7764 220.204 52.6042 219.365 53.6255 219.365H61.0223C62.0436 219.365 62.8716 220.204 62.8716 221.241C62.8716 222.278 62.0436 223.118 61.0223 223.118Z" fill="#E47E25"/>
<path d="M50.6574 211.857C49.8205 211.857 49.0878 211.287 48.8713 210.466C48.6547 209.646 49.008 208.78 49.7327 208.355L56.1366 204.602C56.7091 204.261 57.4175 204.257 57.9929 204.593C58.5683 204.928 58.9225 205.551 58.9211 206.225C58.9196 206.898 58.5627 207.519 57.9859 207.852L51.582 211.606C51.3009 211.77 50.982 211.857 50.6574 211.857Z" fill="#E47E25"/>
<path d="M42.5308 203.612C41.8704 203.612 41.2606 203.253 40.9308 202.673C40.6009 202.092 40.6011 201.378 40.9312 200.797L44.6297 194.298C44.9576 193.712 45.5695 193.35 46.2332 193.348C46.8967 193.347 47.5102 193.707 47.8407 194.291C48.1713 194.874 48.1681 195.594 47.8325 196.175L44.1341 202.674C43.8034 203.255 43.1921 203.613 42.5308 203.612Z" fill="#E47E25"/>
</g>
</g>
<defs>
<filter id="filter0_d" x="-10" y="94" width="315.698" height="191.866" filterUnits="userSpaceOnUse" color-interpolation-filters="sRGB">
<feFlood flood-opacity="0" result="BackgroundImageFix"/>
<feColorMatrix in="SourceAlpha" type="matrix" values="0 0 0 0 0 0 0 0 0 0 0 0 0 0 0 0 0 0 127 0"/>
<feOffset dy="4"/>
<feGaussianBlur stdDeviation="5"/>
<feColorMatrix type="matrix" values="0 0 0 0 0 0 0 0 0 0 0 0 0 0 0 0 0 0 0.05 0"/>
<feBlend mode="normal" in2="BackgroundImageFix" result="effect1_dropShadow"/>
<feBlend mode="normal" in="SourceGraphic" in2="effect1_dropShadow" result="shape"/>
</filter>
<clipPath id="clip0">
<rect width="336" height="318" fill="white"/>
</clipPath>
</defs>
</svg>
