<svg width="20" height="20" viewBox="0 0 20 20" fill="none" xmlns="http://www.w3.org/2000/svg">
<g clip-path="url(#clip0)">
<path d="M19.4293 14.1338L15.0543 12.2588C14.8674 12.1792 14.6597 12.1624 14.4624 12.211C14.2652 12.2596 14.089 12.371 13.9605 12.5283L12.023 14.8955C8.98232 13.4619 6.53524 11.0148 5.10156 7.97404L7.46875 6.03654C7.62644 5.90829 7.73805 5.73216 7.78668 5.5348C7.83531 5.33745 7.81832 5.12962 7.73828 4.94279L5.86328 0.567791C5.77544 0.366388 5.62007 0.20195 5.42397 0.10283C5.22787 0.00370988 5.00333 -0.0238783 4.78906 0.0248224L0.726563 0.962322C0.519988 1.01002 0.335682 1.12634 0.203725 1.29228C0.0717677 1.45822 -4.75863e-05 1.66398 2.36571e-08 1.87599C2.36571e-08 11.8955 8.12109 20.001 18.125 20.001C18.3371 20.0011 18.5429 19.9294 18.709 19.7974C18.875 19.6654 18.9913 19.4811 19.0391 19.2744L19.9766 15.2119C20.025 14.9966 19.9968 14.7712 19.8969 14.5744C19.797 14.3776 19.6317 14.2218 19.4293 14.1338Z" fill="#28A745"/>
</g>
<defs>
<clipPath id="clip0">
<rect width="20" height="20" fill="white"/>
</clipPath>
</defs>
</svg>
