<svg width="24" height="27" viewBox="0 0 24 27" fill="none" xmlns="http://www.w3.org/2000/svg">
<path d="M20.4054 5.12051C18.1607 2.90566 15.1714 1.6875 11.9946 1.6875C5.4375 1.6875 0.101786 6.93984 0.101786 13.3945C0.101786 15.4564 0.648214 17.4709 1.6875 19.248L0 25.3125L6.30536 23.683C8.04107 24.6164 9.99643 25.1068 11.9893 25.1068H11.9946C18.5464 25.1068 24 19.8545 24 13.3998C24 10.2727 22.65 7.33535 20.4054 5.12051ZM11.9946 23.1346C10.2161 23.1346 8.475 22.6652 6.95893 21.7793L6.6 21.5684L2.86071 22.5334L3.85714 18.9422L3.62143 18.573C2.63036 17.0227 2.11071 15.235 2.11071 13.3945C2.11071 8.03145 6.54643 3.66504 12 3.66504C14.6411 3.66504 17.1214 4.67754 18.9857 6.51797C20.85 8.3584 21.9964 10.8 21.9911 13.3998C21.9911 18.7682 17.4429 23.1346 11.9946 23.1346ZM17.4161 15.8467C17.1214 15.699 15.6589 14.9924 15.3857 14.8975C15.1125 14.7973 14.9143 14.7498 14.7161 15.0451C14.5179 15.3404 13.95 15.9943 13.7732 16.1947C13.6018 16.3898 13.425 16.4162 13.1304 16.2686C11.3839 15.409 10.2375 14.734 9.08571 12.7881C8.78036 12.2713 9.39107 12.3082 9.95893 11.1902C10.0554 10.9951 10.0071 10.8264 9.93214 10.6787C9.85714 10.5311 9.2625 9.09141 9.01607 8.50605C8.775 7.93652 8.52857 8.01562 8.34643 8.00508C8.175 7.99453 7.97679 7.99453 7.77857 7.99453C7.58036 7.99453 7.25893 8.06836 6.98571 8.3584C6.7125 8.65371 5.94643 9.36035 5.94643 10.8C5.94643 12.2396 7.0125 13.6318 7.15714 13.827C7.30714 14.0221 9.25179 16.9752 12.2357 18.2461C14.1214 19.0477 14.8607 19.1162 15.8036 18.9791C16.3768 18.8947 17.5607 18.2725 17.8071 17.5869C18.0536 16.9014 18.0536 16.316 17.9786 16.1947C17.9089 16.0629 17.7107 15.9891 17.4161 15.8467Z" fill="#28A745"/>
</svg>
